<svg width="113" height="17" viewBox="0 0 113 17" fill="none" xmlns="http://www.w3.org/2000/svg">
<path d="M14.432 12.08C14.608 12.08 14.76 12.144 14.888 12.272C15.016 12.4 15.08 12.552 15.08 12.728V16.352C15.08 16.528 15.016 16.68 14.888 16.808C14.76 16.936 14.608 17 14.432 17H0.728C0.552 17 0.4 16.936 0.272 16.808C0.144 16.68 0.08 16.528 0.08 16.352V12.896C0.08 12.576 0.2 12.296 0.44 12.056L7.16 5.072H0.848C0.672 5.072 0.52 5.008 0.392 4.88C0.264 4.752 0.2 4.6 0.2 4.424V0.847999C0.2 0.671999 0.264 0.52 0.392 0.391999C0.52 0.263999 0.672 0.199999 0.848 0.199999H14.12C14.296 0.199999 14.448 0.263999 14.576 0.391999C14.704 0.52 14.768 0.671999 14.768 0.847999V4.256C14.768 4.576 14.664 4.84 14.456 5.048L8.096 12.08H14.432ZM20.1642 6.56H28.6363C28.8123 6.56 28.9643 6.624 29.0922 6.752C29.2203 6.88 29.2843 7.032 29.2843 7.208V10.616C29.2843 10.792 29.2203 10.944 29.0922 11.072C28.9643 11.2 28.8123 11.264 28.6363 11.264H20.1642C19.9882 11.264 19.8362 11.2 19.7082 11.072C19.5802 10.944 19.5162 10.792 19.5162 10.616V7.208C19.5162 7.032 19.5802 6.88 19.7082 6.752C19.8362 6.624 19.9882 6.56 20.1642 6.56ZM42.9476 6.2C43.1236 5.992 43.2116 5.744 43.2116 5.456C43.2116 5.168 43.1236 4.912 42.9476 4.688C42.7876 4.448 42.5476 4.328 42.2276 4.328H40.2116V6.512H42.2276C42.5476 6.512 42.7876 6.408 42.9476 6.2ZM40.2116 10.52V12.872H42.4436C42.8116 12.872 43.0836 12.752 43.2596 12.512C43.4516 12.256 43.5476 11.976 43.5476 11.672V11.648C43.5476 11.344 43.4436 11.08 43.2356 10.856C43.0436 10.632 42.7796 10.52 42.4436 10.52H40.2116ZM43.0676 17H34.8596C34.6836 17 34.5316 16.936 34.4036 16.808C34.2756 16.68 34.2116 16.528 34.2116 16.352V0.847999C34.2116 0.671999 34.2756 0.52 34.4036 0.391999C34.5316 0.263999 34.6836 0.199999 34.8596 0.199999H42.8276C45.0996 0.199999 46.7716 0.615999 47.8436 1.448C48.9316 2.264 49.4756 3.504 49.4756 5.168V5.24C49.4756 5.928 49.2756 6.544 48.8756 7.088C48.4756 7.616 48.0356 8 47.5556 8.24C48.1956 8.496 48.7316 8.952 49.1636 9.608C49.6116 10.248 49.8356 10.952 49.8356 11.72C49.8356 15.24 47.5796 17 43.0676 17ZM60.0082 0.199999H65.2162C65.7922 0.199999 66.1522 0.463999 66.2962 0.991999L71.6482 16.304C71.6642 16.352 71.6722 16.432 71.6722 16.544C71.6722 16.64 71.6162 16.744 71.5042 16.856C71.4082 16.952 71.2882 17 71.1442 17H66.7042C66.2242 17 65.9122 16.8 65.7682 16.4L65.1922 14.816H60.0322L59.4562 16.4C59.3122 16.8 59.0002 17 58.5202 17H54.0802C53.9362 17 53.8082 16.952 53.6962 16.856C53.6002 16.744 53.5522 16.64 53.5522 16.544C53.5522 16.432 53.5602 16.352 53.5762 16.304L58.9282 0.991999C59.0722 0.463999 59.4322 0.199999 60.0082 0.199999ZM61.2562 10.136H63.9682L62.6002 5.672L61.2562 10.136ZM86.1239 0.199999H90.4679C90.6439 0.199999 90.7959 0.263999 90.9239 0.391999C91.0519 0.52 91.1159 0.671999 91.1159 0.847999V16.352C91.1159 16.528 91.0519 16.68 90.9239 16.808C90.7959 16.936 90.6439 17 90.4679 17H86.6759C86.2599 17 85.9319 16.816 85.6919 16.448L81.6359 10.328V16.352C81.6359 16.528 81.5719 16.68 81.4439 16.808C81.3159 16.936 81.1639 17 80.9879 17H76.6439C76.4679 17 76.3159 16.936 76.1879 16.808C76.0599 16.68 75.9959 16.528 75.9959 16.352V0.847999C75.9959 0.671999 76.0599 0.52 76.1879 0.391999C76.3159 0.263999 76.4679 0.199999 76.6439 0.199999H80.4359C80.8839 0.199999 81.2119 0.383999 81.4199 0.751999L85.4759 7.4V0.847999C85.4759 0.671999 85.5399 0.52 85.6679 0.391999C85.7959 0.263999 85.9479 0.199999 86.1239 0.199999ZM112.35 16.208C112.398 16.288 112.422 16.392 112.422 16.52C112.422 16.632 112.366 16.744 112.254 16.856C112.158 16.952 112.038 17 111.894 17H106.422C105.958 17 105.63 16.816 105.438 16.448L102.51 11.216V16.352C102.51 16.528 102.446 16.68 102.318 16.808C102.19 16.936 102.038 17 101.862 17H97.2783C97.1023 17 96.9503 16.936 96.8223 16.808C96.6943 16.68 96.6303 16.528 96.6303 16.352V0.847999C96.6303 0.671999 96.6943 0.52 96.8223 0.391999C96.9503 0.263999 97.1023 0.199999 97.2783 0.199999H101.862C102.038 0.199999 102.19 0.263999 102.318 0.391999C102.446 0.52 102.51 0.671999 102.51 0.847999V5.6L105.222 0.727999C105.398 0.375999 105.718 0.199999 106.182 0.199999H111.486C111.63 0.199999 111.75 0.255999 111.846 0.368C111.958 0.463999 112.014 0.575999 112.014 0.704C112.014 0.815999 111.99 0.911999 111.942 0.991999L107.622 8.24L112.35 16.208Z" fill="black"/>
</svg>
