<svg width="14" height="12" viewBox="0 0 14 12" fill="none" xmlns="http://www.w3.org/2000/svg">
<path d="M13.6134 5.73334C12.2667 2.60667 9.73338 0.666672 7.00004 0.666672C4.26671 0.666672 1.73338 2.60667 0.386711 5.73334C0.350002 5.81745 0.331055 5.90823 0.331055 6C0.331055 6.09178 0.350002 6.18256 0.386711 6.26667C1.73338 9.39334 4.26671 11.3333 7.00004 11.3333C9.73338 11.3333 12.2667 9.39334 13.6134 6.26667C13.6501 6.18256 13.669 6.09178 13.669 6C13.669 5.90823 13.6501 5.81745 13.6134 5.73334ZM7.00004 10C4.88671 10 2.88671 8.47334 1.73338 6C2.88671 3.52667 4.88671 2 7.00004 2C9.11338 2 11.1134 3.52667 12.2667 6C11.1134 8.47334 9.11338 10 7.00004 10ZM7.00004 3.33334C6.47263 3.33334 5.95706 3.48974 5.51852 3.78275C5.07999 4.07577 4.7382 4.49225 4.53637 4.97952C4.33453 5.46678 4.28172 6.00296 4.38462 6.52025C4.48751 7.03753 4.74149 7.51268 5.11443 7.88562C5.48737 8.25856 5.96252 8.51254 6.4798 8.61543C6.99709 8.71833 7.53326 8.66552 8.02053 8.46368C8.5078 8.26185 8.92428 7.92006 9.2173 7.48152C9.51031 7.04299 9.66671 6.52742 9.66671 6C9.66671 5.29276 9.38576 4.61448 8.88566 4.11439C8.38557 3.61429 7.70729 3.33334 7.00004 3.33334ZM7.00004 7.33334C6.73634 7.33334 6.47855 7.25514 6.25928 7.10863C6.04002 6.96212 5.86912 6.75388 5.76821 6.51025C5.66729 6.26661 5.64088 5.99853 5.69233 5.73988C5.74378 5.48124 5.87077 5.24367 6.05724 5.0572C6.24371 4.87073 6.48128 4.74374 6.73992 4.69229C6.99857 4.64084 7.26665 4.66725 7.51029 4.76817C7.75392 4.86908 7.96216 5.03998 8.10867 5.25924C8.25518 5.47851 8.33338 5.7363 8.33338 6C8.33338 6.35363 8.1929 6.69276 7.94285 6.94281C7.6928 7.19286 7.35367 7.33334 7.00004 7.33334Z" fill="white"/>
</svg>
