<svg width="24" height="24" viewBox="0 0 24 24" fill="none" xmlns="http://www.w3.org/2000/svg">
<g clip-path="url(#clip0_3_124)">
<path fill-rule="evenodd" clip-rule="evenodd" d="M18.4252 18.3702C17.4838 18.3702 16.5985 18.0041 15.9325 17.338L12.3199 13.7255C12.068 13.4735 11.6274 13.4726 11.3745 13.7255L7.77522 17.3248C7.10917 17.9908 6.22389 18.357 5.28245 18.357H4.849L9.42029 22.9282C10.8441 24.352 13.1522 24.352 14.576 22.9282L19.1341 18.3702H18.4252ZM13.501 21.8543C13.1002 22.2541 12.5668 22.4753 11.9987 22.4753H11.9977C11.4296 22.4753 10.8951 22.2541 10.4954 21.8543L7.8303 19.1892C8.19944 18.9729 8.54115 18.7088 8.8502 18.3998L11.8478 15.4022L14.8585 18.413C15.2165 18.7721 15.6174 19.0699 16.0528 19.3014L13.501 21.8542V21.8543ZM14.5761 1.06782C13.1523 -0.355961 10.8442 -0.355961 9.42039 1.06782L4.84914 5.63907H5.28259C6.22394 5.63907 7.10931 6.00629 7.77531 6.67126L11.3746 10.2706C11.6357 10.5327 12.06 10.5316 12.32 10.2706L15.9326 6.65799C16.5986 5.99298 17.4839 5.6258 18.4253 5.6258H19.1342L14.5761 1.06782ZM14.8586 5.58404L11.8479 8.59482L8.84926 5.59623C8.54022 5.28723 8.19958 5.02407 7.83039 4.80788L10.4954 2.14177C11.3246 1.31466 12.6739 1.31359 13.501 2.14177L16.0529 4.69463C15.6174 4.92718 15.2166 5.22502 14.8586 5.58404H14.8586Z" fill="#1C0929"/>
<path fill-rule="evenodd" clip-rule="evenodd" d="M22.9288 9.42047L20.1922 6.68405H18.4248C17.7761 6.68405 17.1407 6.94819 16.6817 7.40714L13.0692 11.0198C12.7316 11.3563 12.29 11.5246 11.8473 11.5246C11.4046 11.5246 10.962 11.3563 10.6254 11.0198L7.02613 7.42046C6.56714 6.96043 5.93179 6.69732 5.28206 6.69732H3.79096L1.06771 9.42047C-0.356067 10.8443 -0.356067 13.1524 1.06771 14.5762L3.79092 17.2984L5.28201 17.2994C5.9317 17.2994 6.56714 17.0352 7.02613 16.5763L10.6254 12.978C11.2781 12.3242 12.4164 12.3253 13.0691 12.977L16.6817 16.5895C17.1406 17.0485 17.776 17.3116 18.4247 17.3116H20.1922L22.9287 14.5762C24.3525 13.1524 24.3525 10.8443 22.9287 9.42047H22.9288ZM5.9511 15.5013C5.77471 15.6788 5.53195 15.7786 5.28206 15.7786H4.42031L2.14265 13.5022C1.31348 12.673 1.31348 11.3236 2.14265 10.4955L4.42021 8.217H5.28201C5.5319 8.217 5.77467 8.31797 5.95209 8.49441L9.45553 11.9978L5.9511 15.5013ZM21.8538 13.5022L19.564 15.793H18.4247C18.1759 15.793 17.9322 15.692 17.7567 15.5155L14.24 11.9978L17.7567 8.48114C17.9322 8.30471 18.1759 8.20374 18.4248 8.20374H19.564L21.8537 10.4955C22.2556 10.8963 22.4759 11.4297 22.4759 11.9978C22.4759 12.567 22.2556 13.1003 21.8537 13.5022H21.8538Z" fill="#1C0929"/>
</g>
<defs>
<clipPath id="clip0_3_124">
<rect width="24" height="24" fill="white"/>
</clipPath>
</defs>
</svg>
